<svg width="25" height="26" viewBox="0 0 25 26" fill="none" xmlns="http://www.w3.org/2000/svg">
<path d="M8.03587 0.306213C8.13294 0.403033 8.20995 0.518052 8.26249 0.64468C8.31504 0.771309 8.34208 0.90706 8.34208 1.04416C8.34208 1.18126 8.31504 1.31701 8.26249 1.44364C8.20995 1.57026 8.13294 1.68528 8.03587 1.7821L3.56026 6.25563H8.42986C11.49 6.25563 14.4856 6.25563 17.2393 7.08113C20.0848 7.93581 22.628 9.65351 24.8418 12.9743C24.9854 13.2043 25.0337 13.4812 24.9765 13.7462C24.9193 14.0112 24.7611 14.2435 24.5354 14.3938C24.3097 14.5441 24.0343 14.6005 23.7677 14.5511C23.5011 14.5017 23.2643 14.3503 23.1075 14.1291C21.1521 11.1961 19.005 9.78693 16.639 9.07817C14.2083 8.34856 11.5025 8.34022 8.34022 8.34022H3.56026L8.03587 12.8137C8.13278 12.9107 8.20965 13.0257 8.2621 13.1523C8.31454 13.2789 8.34154 13.4146 8.34154 13.5517C8.34154 13.6887 8.31454 13.8245 8.2621 13.9511C8.20965 14.0777 8.13278 14.1927 8.03587 14.2896C7.93896 14.3865 7.82392 14.4634 7.6973 14.5159C7.57068 14.5683 7.43498 14.5953 7.29793 14.5953C7.16088 14.5953 7.02517 14.5683 6.89855 14.5159C6.77194 14.4634 6.65689 14.3865 6.55998 14.2896L0.306213 8.03587C0.209148 7.93905 0.132137 7.82403 0.0795923 7.6974C0.0270472 7.57078 0 7.43502 0 7.29793C0 7.16083 0.0270472 7.02508 0.0795923 6.89845C0.132137 6.77182 0.209148 6.6568 0.306213 6.55998L6.55998 0.306213C6.6568 0.209148 6.77182 0.132137 6.89845 0.0795923C7.02508 0.0270472 7.16083 0 7.29793 0C7.43502 0 7.57078 0.0270472 7.6974 0.0795923C7.82403 0.132137 7.93905 0.209148 8.03587 0.306213ZM12.5094 25.0169C13.6151 25.0169 14.6756 24.5777 15.4575 23.7958C16.2393 23.0139 16.6786 21.9535 16.6786 20.8478C16.6786 19.742 16.2393 18.6816 15.4575 17.8997C14.6756 17.1178 13.6151 16.6786 12.5094 16.6786C11.4037 16.6786 10.3432 17.1178 9.56135 17.8997C8.77947 18.6816 8.34022 19.742 8.34022 20.8478C8.34022 21.9535 8.77947 23.0139 9.56135 23.7958C10.3432 24.5777 11.4037 25.0169 12.5094 25.0169Z" fill="#300759"/>
</svg>
