<svg width="74" height="84" viewBox="0 0 74 84" fill="none" xmlns="http://www.w3.org/2000/svg">
<path d="M74 58.8V4.2C74 1.575 72.4143 0 69.7714 0H15.8571C6.87143 0 0 6.825 0 15.75V68.25C0 77.175 6.87143 84 15.8571 84H69.7714C71.8857 84 74 82.425 74 79.8V77.175C74 76.125 73.4714 75.075 72.4143 74.025C71.8857 71.4 71.8857 64.05 72.4143 61.95C73.4714 61.425 74 60.375 74 58.8ZM49.732 23.9236C49.8311 23.7251 50.0227 23.625 50.2143 23.625C50.4059 23.625 50.5975 23.7251 50.6966 23.9236L52.5433 27.6396L56.6728 28.2352C57.1138 28.2991 57.2905 28.8373 56.9717 29.1473L53.9837 32.0398L54.689 36.1233C54.7484 36.4695 54.4726 36.75 54.1587 36.75C54.0762 36.75 53.9903 36.7303 53.9077 36.6877L50.2143 34.7599L46.5209 36.6877C46.4383 36.7303 46.3524 36.75 46.2698 36.75C45.956 36.75 45.6801 36.4695 45.7396 36.1233L46.4449 32.0398L43.4568 29.1473C43.1364 28.8373 43.3131 28.2991 43.7558 28.2352L47.8836 27.6396L49.732 23.9236ZM40.1698 12.6016C42.4278 12.6016 44.6725 13.0102 46.8397 13.8173C47.0035 13.8175 47.1653 13.8533 47.3136 13.9223C47.462 13.9913 47.5932 14.0919 47.6982 14.2168C47.8031 14.3417 47.8792 14.488 47.921 14.6453C47.9627 14.8027 47.9692 14.9672 47.94 15.1273C47.9108 15.2874 47.8465 15.4391 47.7517 15.5718C47.657 15.7046 47.534 15.815 47.3916 15.8954C47.2492 15.9757 47.0907 16.024 46.9274 16.0369C46.7641 16.0498 46.6 16.0269 46.4466 15.9698C46.3359 15.9698 45.9362 15.9354 45.7644 15.9354C37.1239 15.9354 30.0955 22.9163 30.0955 31.4984C30.0955 40.0788 37.1239 47.0613 45.7644 47.0613C45.9345 47.0613 46.3392 47.0269 46.4466 47.0269C47.0957 47.0269 47.5698 47.542 47.5698 48.1392C47.5698 48.6281 47.2493 49.0432 46.8066 49.1925C44.6478 49.9915 42.4146 50.3967 40.1681 50.3967C29.6776 50.3984 21.1429 41.9196 21.1429 31.5C21.1429 21.0788 29.6776 12.6016 40.1698 12.6016ZM62.9 73.5H15.8571C12.6857 73.5 10.5714 71.4 10.5714 68.25C10.5714 65.1 13.2143 63 15.8571 63H62.9V73.5Z" fill="#300759"/>
</svg>
