<svg width="20" height="26" viewBox="0 0 20 26" fill="none" xmlns="http://www.w3.org/2000/svg">
<path d="M3.25592 2.60001H17.8809V3.85938H3.25592V2.60001Z" fill="#300759"/>
<path d="M18.6934 4.875H3.14215C2.9348 4.87206 2.73019 4.82716 2.54067 4.743C2.35115 4.65883 2.18063 4.53716 2.03941 4.38531C1.89819 4.23346 1.78919 4.05458 1.71898 3.85946C1.64877 3.66434 1.61881 3.45702 1.6309 3.25C1.62988 2.83803 1.78539 2.44105 2.06595 2.13937C2.34651 1.83769 2.73118 1.65384 3.14215 1.625H18.6934C18.9089 1.625 19.1155 1.5394 19.2679 1.38702C19.4203 1.23465 19.5059 1.02799 19.5059 0.8125C19.5059 0.597012 19.4203 0.390349 19.2679 0.237976C19.1155 0.0856024 18.9089 0 18.6934 0H3.14215C2.30006 0.0294909 1.50234 0.384876 0.917236 0.991203C0.332131 1.59753 0.00537905 2.4074 0.0058953 3.25C-0.0019651 3.38259 -0.0019651 3.51553 0.0058953 3.64812C-0.00193298 3.71289 -0.00193298 3.77836 0.0058953 3.84313V22.75C0.00537905 23.5926 0.332131 24.4025 0.917236 25.0088C1.50234 25.6151 2.30006 25.9705 3.14215 26H18.6934C18.9089 26 19.1155 25.9144 19.2679 25.762C19.4203 25.6097 19.5059 25.403 19.5059 25.1875V5.89062V5.8175V5.74437C19.5064 5.52333 19.4226 5.3104 19.2717 5.1489C19.1208 4.9874 18.914 4.88946 18.6934 4.875Z" fill="#300759"/>
</svg>
