<svg width="21" height="15" viewBox="0 0 21 15" fill="none" xmlns="http://www.w3.org/2000/svg">
<path d="M1.5 15H9C9.39782 15 9.77936 14.842 10.0607 14.5607C10.342 14.2794 10.5 13.8978 10.5 13.5C10.5 13.1022 10.342 12.7206 10.0607 12.4393C9.77936 12.158 9.39782 12 9 12H1.5C1.10218 12 0.720645 12.158 0.43934 12.4393C0.158036 12.7206 0 13.1022 0 13.5C0 13.8978 0.158036 14.2794 0.43934 14.5607C0.720645 14.842 1.10218 15 1.5 15V15ZM12 3H19.5C19.8978 3 20.2794 2.84196 20.5607 2.56066C20.842 2.27936 21 1.89782 21 1.5C21 1.10218 20.842 0.720643 20.5607 0.439339C20.2794 0.158034 19.8978 0 19.5 0H12C11.6022 0 11.2206 0.158034 10.9393 0.439339C10.658 0.720643 10.5 1.10218 10.5 1.5C10.5 1.89782 10.658 2.27936 10.9393 2.56066C11.2206 2.84196 11.6022 3 12 3V3ZM1.5 9H19.5C19.8978 9 20.2794 8.84196 20.5607 8.56066C20.842 8.27936 21 7.89782 21 7.5C21 7.10218 20.842 6.72064 20.5607 6.43934C20.2794 6.15804 19.8978 6 19.5 6H1.5C1.10218 6 0.720645 6.15804 0.43934 6.43934C0.158036 6.72064 0 7.10218 0 7.5C0 7.89782 0.158036 8.27936 0.43934 8.56066C0.720645 8.84196 1.10218 9 1.5 9Z" fill="#CD77F2"/>
</svg>
