<svg width="25" height="25" viewBox="0 0 25 25" fill="none" xmlns="http://www.w3.org/2000/svg">
<path d="M22.321 14.2862C22.1496 14.286 21.9819 14.2364 21.838 14.1433L17.8566 11.5808L13.8761 14.1451C13.7248 14.243 13.5475 14.2928 13.3674 14.288C13.1873 14.2832 13.0128 14.224 12.867 14.1183C12.7211 14.0125 12.6107 13.8651 12.5501 13.6954C12.4896 13.5257 12.4818 13.3416 12.5279 13.1674L13.7332 8.58512L10.9903 5.97342C10.8686 5.85766 10.782 5.70992 10.7405 5.54716C10.699 5.38441 10.7042 5.21324 10.7556 5.05332C10.8069 4.8934 10.9024 4.75122 11.0309 4.64311C11.1595 4.53499 11.3159 4.46533 11.4823 4.44212L15.3887 3.89567L17.0548 0.499126C17.1276 0.350913 17.2401 0.225795 17.3798 0.13768C17.5194 0.049566 17.6808 0.00190713 17.8459 1.5288e-06C18.0107 -0.000300816 18.1725 0.0442474 18.3139 0.128871C18.4553 0.213495 18.571 0.335004 18.6486 0.480375L20.4281 3.89567L24.2336 4.44301C24.3996 4.46677 24.5555 4.53676 24.6835 4.64499C24.8115 4.75321 24.9065 4.89529 24.9576 5.05497C25.0086 5.21465 25.0137 5.38548 24.9722 5.54791C24.9307 5.71033 24.8443 5.8578 24.7229 5.97342L21.98 8.58422L23.1854 13.1665C23.2201 13.2987 23.224 13.437 23.1968 13.571C23.1696 13.7049 23.1121 13.8308 23.0286 13.9389C22.9451 14.0471 22.8379 14.1346 22.7152 14.1948C22.5925 14.2551 22.4577 14.2863 22.321 14.2862ZM17.8566 9.62533C18.0279 9.62529 18.1956 9.67457 18.3397 9.7673L20.8728 11.3986L20.1183 8.52797C20.0775 8.37347 20.079 8.21085 20.1225 8.0571C20.166 7.90334 20.2499 7.76408 20.3656 7.65383L22.1585 5.94842L19.721 5.59751C19.5809 5.57735 19.4476 5.52417 19.3321 5.44235C19.2165 5.36054 19.1222 5.25244 19.0566 5.12696L17.8807 2.87064L16.7825 5.10732C16.7183 5.2382 16.6231 5.35139 16.5051 5.43699C16.3871 5.52259 16.25 5.57801 16.1057 5.59841L13.5618 5.95467L15.3476 7.65383C15.4634 7.76398 15.5476 7.9032 15.5912 8.05696C15.6349 8.21073 15.6365 8.37339 15.5958 8.52797L14.8404 11.3986L17.3736 9.7673C17.5175 9.67426 17.6852 9.62466 17.8566 9.62444V9.62533Z" fill="white"/>
<path d="M12.3359 25.0008C9.6059 25.0012 6.95292 24.0958 4.79268 22.4266C2.63245 20.7574 1.08704 18.4186 0.398613 15.7768C-0.28981 13.135 -0.0823408 10.3395 0.98851 7.82831C2.05936 5.31709 3.93308 3.2321 6.31605 1.90005C6.48572 1.80493 6.6818 1.76782 6.87449 1.79436C7.06718 1.8209 7.24594 1.90963 7.38358 2.04707C7.52121 2.18451 7.61021 2.36313 7.63703 2.55578C7.66385 2.74843 7.62703 2.94457 7.53217 3.11437C6.40909 5.11898 5.97151 7.43556 6.28599 9.71171C6.60048 11.9879 7.64983 14.099 9.27439 15.724C10.899 17.3489 13.0098 18.3988 15.2859 18.7139C17.562 19.0289 19.8787 18.5919 21.8836 17.4693C22.0532 17.3742 22.2493 17.3371 22.442 17.3636C22.6347 17.3902 22.8134 17.4789 22.9511 17.6164C23.0887 17.7538 23.1777 17.9324 23.2045 18.1251C23.2313 18.3177 23.1945 18.5138 23.0997 18.6837C22.0275 20.5971 20.4654 22.1906 18.5738 23.3008C16.6822 24.411 14.5292 24.9977 12.3359 25.0008ZM4.75529 5.3332C2.82646 7.32051 1.75685 9.98684 1.77753 12.7562C1.79821 15.5256 2.90751 18.1756 4.8658 20.1339C6.82408 22.0922 9.47415 23.2015 12.2435 23.2222C15.0129 23.2429 17.6792 22.1733 19.6665 20.2444C17.6078 20.7492 15.4537 20.7146 13.4122 20.1442C11.3708 19.5737 9.51081 18.4866 8.01196 16.9877C6.51312 15.4889 5.42599 13.629 4.85553 11.5875C4.28507 9.54599 4.25054 7.39192 4.75529 5.3332Z" fill="white"/>
</svg>
