<svg width="24" height="24" viewBox="0 0 24 24" fill="none" xmlns="http://www.w3.org/2000/svg">
<path d="M12.3359 23.2148C9.6059 23.2152 6.95292 22.3098 4.79268 20.6406C2.63245 18.9713 1.08704 16.6326 0.398613 13.9908C-0.28981 11.349 -0.0823408 8.55351 0.98851 6.0423C2.05936 3.53108 3.93308 1.44609 6.31605 0.114036C6.48572 0.018922 6.6818 -0.0181872 6.87449 0.00835059C7.06718 0.0348883 7.24594 0.123621 7.38358 0.261058C7.52121 0.398495 7.61021 0.577118 7.63703 0.769768C7.66385 0.962418 7.62703 1.15856 7.53217 1.32836C6.40909 3.33297 5.97151 5.64955 6.28599 7.9257C6.60048 10.2018 7.64983 12.313 9.27439 13.938C10.899 15.5629 13.0098 16.6128 15.2859 16.9278C17.562 17.2429 19.8787 16.8059 21.8836 15.6833C22.0532 15.5882 22.2493 15.5511 22.442 15.5776C22.6347 15.6042 22.8134 15.6929 22.9511 15.8303C23.0887 15.9678 23.1777 16.1464 23.2045 16.3391C23.2313 16.5317 23.1945 16.7278 23.0997 16.8976C22.0275 18.811 20.4654 20.4046 18.5738 21.5148C16.6822 22.625 14.5292 23.2117 12.3359 23.2148V23.2148ZM4.75529 3.54719C2.82646 5.5345 1.75685 8.20083 1.77753 10.9702C1.79821 13.7396 2.90751 16.3896 4.8658 18.3479C6.82408 20.3062 9.47415 21.4155 12.2435 21.4362C15.0129 21.4568 17.6792 20.3872 19.6665 18.4584C17.6078 18.9632 15.4537 18.9286 13.4122 18.3582C11.3708 17.7877 9.51081 16.7006 8.01196 15.2017C6.51312 13.7029 5.42599 11.8429 4.85553 9.80146C4.28507 7.75998 4.25054 5.60591 4.75529 3.54719V3.54719Z" fill="white"/>
</svg>
