<svg width="44" height="35" viewBox="0 0 44 35" fill="none" xmlns="http://www.w3.org/2000/svg">
<path d="M0 35H43.75L40.1195 5.9376C40.0925 3.49781 40.1545 2.14667 40.1545 2.14667C39.5886 2.32094 38.7465 2.38802 37.738 2.38802C37.5674 2.38802 37.3888 2.3851 37.2072 2.38146C37.2035 0.858229 37.2356 0 37.2356 0C36.3599 1.15208 34.4903 1.44521 32.359 1.44521C30.1459 1.44521 27.6515 1.12948 25.6915 1.12948C22.6676 1.12948 22.0216 3.15292 21.8816 4.02281C21.7416 3.14927 21.0926 1.13458 18.0753 1.13458C16.1153 1.13458 13.6223 1.45031 11.41 1.45031C9.27646 1.45031 7.40688 1.15719 6.53115 0.00364592C6.53115 0.00364592 6.56323 0.861146 6.55885 2.38073C6.37875 2.38365 6.19938 2.38729 6.02802 2.38729C5.01813 2.38729 4.17812 2.32021 3.61229 2.14594C3.61229 2.14594 3.67135 3.43729 3.64875 5.78156L0 35ZM37.738 3.74573C38.1063 3.74573 38.4439 3.73698 38.7537 3.72021C38.7158 7.68177 38.8843 18.5041 41.2978 32.5077C40.8507 32.436 40.4051 32.355 39.9613 32.2649C40.2471 32.146 40.4739 31.9842 40.627 31.7661C37.8605 20.0477 37.3042 9.21448 37.221 3.73844C37.396 3.74208 37.5703 3.74573 37.738 3.74573ZM25.9758 2.9976C27.4568 2.9976 29.4386 3.17187 31.535 3.35635C32.9992 3.48542 34.4947 3.61521 35.859 3.68812C35.9428 9.08031 36.4758 19.6605 39.0724 31.1106C38.8763 31.1434 38.6043 31.169 38.2295 31.169C36.8441 31.169 34.8593 30.8168 32.9401 30.4755C30.7789 30.092 28.5447 29.6946 26.7218 29.6946C25.3086 29.6946 24.1959 29.96 23.3188 30.3661C23.2852 30.38 23.2466 30.3902 23.2152 30.4048L23.2101 4.87594C23.2356 4.51573 23.4894 2.9976 25.9758 2.9976ZM7.91 3.68812C9.27427 3.61521 10.7683 3.48542 12.2318 3.35635C14.3289 3.1726 16.3107 2.9976 17.7931 2.9976C20.1986 2.9976 20.5202 4.40344 20.5574 4.90583L20.5508 30.4041C20.4932 30.3785 20.4247 30.3581 20.3642 30.3341C19.4979 29.9483 18.4144 29.696 17.0428 29.696C15.2199 29.696 12.9857 30.0942 10.8252 30.4777C8.90458 30.8197 6.92052 31.1719 5.5351 31.1719C5.16031 31.1719 4.8876 31.1464 4.69438 31.1143C7.29167 19.6627 7.82469 9.07885 7.91 3.68812ZM5.01448 3.72021C5.3251 3.73698 5.66198 3.74573 6.03021 3.74573C6.19792 3.74573 6.37292 3.74208 6.54792 3.73917C6.46406 9.21375 5.90698 20.0499 3.13906 31.7705C3.29146 31.9871 3.51604 32.149 3.79823 32.2671C3.34542 32.3575 2.8999 32.4399 2.46677 32.5084C4.8825 18.5041 5.05167 7.68177 5.01448 3.72021Z" fill="white"/>
<path d="M17.0809 4.14191C19.0005 4.14191 19.6334 4.44006 19.6402 4.44314L19.8182 4.2833L20 4.12705C19.9259 4.08914 19.2152 3.75 17.1011 3.75C15.5099 3.75 13.5454 4.02613 11.8023 4.26895C10.532 4.44723 9.43152 4.60143 8.80162 4.60143L8.75 5C9.44349 5 10.5761 4.84068 11.8846 4.65625C13.6052 4.41496 15.5458 4.14191 17.0809 4.14191Z" fill="white"/>
<path d="M17.0815 7.03476C19.0003 7.03476 19.6347 7.63047 19.6406 7.63637L19.8181 7.31932L20 7.0062C19.9259 6.92645 19.2159 6.25 17.1021 6.25C15.5111 6.25 13.5469 6.79943 11.8042 7.2888C10.5331 7.64228 9.43286 7.95146 8.80354 7.95146L8.75 8.75C9.44386 8.75 10.5756 8.43098 11.8849 8.06469C13.6041 7.58123 15.5471 7.03476 17.0815 7.03476Z" fill="white"/>
<path d="M17.082 10.3924C19.0003 10.3924 19.6327 10.6891 19.6399 10.6929L19.8174 10.5339L20 10.3782C19.9253 10.3384 19.2144 10 17.1022 10C15.5124 10 13.5488 10.275 11.806 10.5192C10.5346 10.6967 9.43349 10.8515 8.80534 10.8515L8.75 11.25C9.44428 11.25 10.577 11.091 11.885 10.9073C13.6049 10.6645 15.5469 10.3924 17.082 10.3924Z" fill="white"/>
<path d="M16.7584 13.2846C18.889 13.2846 19.5924 13.8803 19.601 13.8858L19.7981 13.5688L20 13.2546C19.9178 13.1774 19.1284 12.5 16.7827 12.5C15.016 12.5 12.833 13.0494 10.8965 13.5389C9.48344 13.8939 8.2613 14.2009 7.56103 14.2009L7.5 15C8.2699 15 9.53117 14.6813 10.9849 14.3135C12.8972 13.8295 15.0535 13.2846 16.7584 13.2846Z" fill="white"/>
<path d="M16.7587 16.6417C18.8884 16.6417 19.5924 16.9397 19.5986 16.9428L19.7978 16.7837L20 16.6269C19.9165 16.5881 19.1282 16.25 16.7825 16.25C15.0175 16.25 12.8349 16.5245 10.8983 16.7685C9.48413 16.9458 8.26224 17.1005 7.56205 17.1005L7.5 17.5C8.2699 17.5 9.52933 17.3405 10.9849 17.1558C12.8962 16.914 15.0519 16.6417 16.7587 16.6417Z" fill="white"/>
<path d="M16.7595 19.5338C18.8889 19.5338 19.5921 20.1287 19.5989 20.1354L19.7968 19.8178L20 19.5045C19.9175 19.4268 19.1295 18.75 16.785 18.75C15.0201 18.75 12.8368 19.2998 10.9009 19.7878C9.48611 20.1437 8.26326 20.452 7.56373 20.452L7.5 21.25C8.27075 21.25 9.53185 20.9317 10.9864 20.564C12.8983 20.0785 15.0553 19.5338 16.7595 19.5338Z" fill="white"/>
<path d="M16.7622 23.2824C18.8909 23.2824 19.5929 23.8787 19.6002 23.8851L19.7983 23.567L20 23.2537C19.9178 23.1754 19.13 22.5 16.7857 22.5C15.0216 22.5 12.8393 23.0499 10.9021 23.5358C9.48859 23.8915 8.26433 24.2008 7.56602 24.2008L7.5 25C8.27093 25 9.53186 24.6803 10.9872 24.3119C12.9002 23.8275 15.0575 23.2824 16.7622 23.2824Z" fill="white"/>
<path d="M16.4371 27.0341C18.7803 27.0341 19.5511 27.6285 19.559 27.6346L19.7767 27.3164L20 27.0043C19.9085 26.9263 19.0438 26.25 16.4662 26.25C14.5254 26.25 12.1246 26.7993 9.99362 27.2873C8.43858 27.6438 7.09182 27.9498 6.32337 27.9498L6.25 28.75C7.09655 28.75 8.48355 28.4318 10.0851 28.0638C12.1909 27.5796 14.5641 27.0341 16.4371 27.0341Z" fill="white"/>
<path d="M24.1113 4.44314C24.1173 4.44006 24.7502 4.14191 26.6699 4.14191C28.2065 4.14191 30.1463 4.41496 31.8662 4.65625C33.1746 4.84068 34.3073 5 35 5L34.9484 4.60143C34.3185 4.60143 33.218 4.44723 31.9477 4.26895C30.2061 4.02613 28.2409 3.75 26.6497 3.75C24.537 3.75 23.8248 4.08914 23.75 4.12705L23.9325 4.2833L24.1113 4.44314Z" fill="white"/>
<path d="M26.6483 6.25C24.5334 6.25 23.8226 6.92671 23.75 7.0065L23.9319 7.31974L24.1087 7.63692C24.1153 7.63199 24.7491 7.03507 26.6689 7.03507C28.2035 7.03507 30.1452 7.58077 31.8647 8.06442C33.1734 8.43184 34.306 8.75 35 8.75L34.9464 7.95114C34.3185 7.95114 33.2174 7.64283 31.9462 7.28822C30.2039 6.79964 28.2394 6.25 26.6483 6.25Z" fill="white"/>
<path d="M26.6477 10C24.535 10 23.824 10.3385 23.75 10.3783L23.9319 10.5341L24.1094 10.6932C24.1159 10.6899 24.7499 10.3925 26.6678 10.3925C28.204 10.3925 30.1442 10.6648 31.8651 10.9072C33.1734 11.0909 34.307 11.25 35 11.25L34.9461 10.8513C34.3171 10.8513 33.2165 10.6965 31.9442 10.5189C30.2031 10.2746 28.2378 10 26.6477 10Z" fill="white"/>
<path d="M26.9671 12.5C24.62 12.5 23.8306 13.1768 23.75 13.2549L23.9511 13.5692L24.149 13.8863C24.1568 13.8808 24.8594 13.2849 26.9906 13.2849C28.6962 13.2849 30.8532 13.8299 32.7661 14.3132C34.2197 14.6811 35.4794 15 36.25 15L36.1866 14.2015C35.4872 14.2015 34.2651 13.8944 32.8521 13.5392C30.9166 13.0496 28.7337 12.5 26.9671 12.5Z" fill="white"/>
<path d="M26.9652 16.25C24.6187 16.25 23.832 16.5881 23.75 16.6269L23.9522 16.7837L24.1491 16.9428C24.1576 16.9397 24.8593 16.6417 26.9905 16.6417C28.6958 16.6417 30.853 16.914 32.7636 17.1558C34.2191 17.3405 35.4793 17.5 36.25 17.5L36.1872 17.1005C35.487 17.1005 34.2643 16.9458 32.8517 16.7685C30.9151 16.5245 28.7325 16.25 26.9652 16.25Z" fill="white"/>
<path d="M26.9652 18.75C24.6205 18.75 23.8332 19.4279 23.75 19.5048L23.9532 19.8182L24.1511 20.1358C24.1571 20.1291 24.8605 19.534 26.9899 19.534C28.6935 19.534 30.8514 20.079 32.7642 20.5638C34.2188 20.9315 35.4792 21.25 36.25 21.25L36.1855 20.4518C35.4867 20.4518 34.2638 20.1433 32.8511 19.7873C30.9144 19.3 28.7317 18.75 26.9652 18.75Z" fill="white"/>
<path d="M26.9643 22.5C24.62 22.5 23.8329 23.1764 23.75 23.2539L23.951 23.5673L24.1498 23.8855C24.1564 23.8791 24.8591 23.2827 26.9885 23.2827C28.6925 23.2827 30.8505 23.8287 32.7628 24.3116C34.2181 24.6802 35.4798 25 36.25 25L36.1832 24.2005C35.4842 24.2005 34.2607 23.8911 32.8486 23.5353C30.9107 23.05 28.7284 22.5 26.9643 22.5Z" fill="white"/>
<path d="M27.2843 26.25C24.7062 26.25 23.8407 26.927 23.75 27.0043L23.9717 27.3164L24.1894 27.6346C24.1981 27.6285 24.9705 27.0341 27.3112 27.0341C29.1864 27.0341 31.5595 27.5796 33.6635 28.0638C35.2642 28.4318 36.6519 28.75 37.5 28.75L37.4251 27.9498C36.6566 27.9498 35.31 27.6438 33.7558 27.2873C31.625 26.7993 29.2235 26.25 27.2843 26.25Z" fill="white"/>
</svg>
