<svg width="28" height="28" viewBox="0 0 28 28" fill="none" xmlns="http://www.w3.org/2000/svg">
<path d="M11.5806 2.90233C12.1959 0.365889 15.8041 0.365889 16.4194 2.90233C16.5118 3.28338 16.6928 3.63724 16.9477 3.93511C17.2026 4.23298 17.5243 4.46646 17.8865 4.61652C18.2487 4.76659 18.6412 4.82901 19.0321 4.7987C19.423 4.76839 19.8012 4.64621 20.136 4.44211C22.3648 3.08433 24.9171 5.63522 23.5593 7.86544C23.3555 8.20006 23.2335 8.57804 23.2033 8.96867C23.1731 9.3593 23.2354 9.75156 23.3853 10.1135C23.5352 10.4755 23.7684 10.7971 24.0659 11.052C24.3635 11.3069 24.717 11.488 25.0977 11.5806C27.6341 12.1959 27.6341 15.8041 25.0977 16.4194C24.7166 16.5118 24.3628 16.6928 24.0649 16.9477C23.767 17.2026 23.5335 17.5243 23.3835 17.8865C23.2334 18.2487 23.171 18.6412 23.2013 19.0321C23.2316 19.423 23.3538 19.8012 23.5579 20.136C24.9157 22.3648 22.3648 24.9171 20.1346 23.5593C19.7999 23.3555 19.422 23.2335 19.0313 23.2033C18.6407 23.1731 18.2484 23.2354 17.8865 23.3853C17.5245 23.5352 17.2029 23.7684 16.948 24.0659C16.6931 24.3635 16.512 24.717 16.4194 25.0977C15.8041 27.6341 12.1959 27.6341 11.5806 25.0977C11.4882 24.7166 11.3072 24.3628 11.0523 24.0649C10.7974 23.767 10.4757 23.5335 10.1135 23.3835C9.75129 23.2334 9.35876 23.171 8.96787 23.2013C8.57697 23.2316 8.19875 23.3538 7.864 23.5579C5.63522 24.9157 3.08289 22.3648 4.44067 20.1346C4.64448 19.7999 4.76646 19.422 4.7967 19.0313C4.82694 18.6407 4.76457 18.2484 4.61468 17.8865C4.46479 17.5245 4.2316 17.2029 3.93406 16.948C3.63652 16.6931 3.28304 16.512 2.90233 16.4194C0.365889 15.8041 0.365889 12.1959 2.90233 11.5806C3.28338 11.4882 3.63724 11.3072 3.93511 11.0523C4.23298 10.7974 4.46646 10.4757 4.61652 10.1135C4.76659 9.75129 4.82901 9.35876 4.7987 8.96787C4.76839 8.57697 4.64621 8.19875 4.44211 7.864C3.08433 5.63522 5.63522 3.08289 7.86544 4.44067C9.30989 5.31889 11.1819 4.54178 11.5806 2.90233Z" stroke="#300759" stroke-width="2" stroke-linecap="round" stroke-linejoin="round"/>
<path d="M14 18.3334C16.3933 18.3334 18.3334 16.3933 18.3334 14C18.3334 11.6068 16.3933 9.66669 14 9.66669C11.6068 9.66669 9.66669 11.6068 9.66669 14C9.66669 16.3933 11.6068 18.3334 14 18.3334Z" stroke="#300759" stroke-width="2" stroke-linecap="round" stroke-linejoin="round"/>
</svg>
